<?xml version="1.0" encoding="iso-8859-1"?>
<!-- Generator: Adobe Illustrator 19.0.0, SVG Export Plug-In . SVG Version: 6.00 Build 0)  -->
<svg version="1.1" id="Layer_1" xmlns="http://www.w3.org/2000/svg" xmlns:xlink="http://www.w3.org/1999/xlink" x="0px" y="0px"
	 viewBox="0 0 496 496" style="enable-background:new 0 0 496 496;" xml:space="preserve">
<g>
	<g>
		<g>
			<path d="M411.312,0H128v85.016C54.648,103.032,0,169.176,0,248s54.648,144.968,128,162.984V496h368V84.688L411.312,0z
				 M416,27.312L468.688,80H416V27.312z M16,248c0-83.816,68.184-152,152-152s152,68.184,152,152s-68.184,152-152,152
				S16,331.816,16,248z M480,480H144v-65.92c7.864,1.136,15.832,1.92,24,1.92c92.632,0,168-75.368,168-168S260.632,80,168,80
				c-8.168,0-16.136,0.784-24,1.92V16h256v80h80V480z"/>
			<path d="M208,368v-24h44.992l36.072-63.768l-37.008-74.016l-63.592,21.192l17.088,31.856L166,312L208,368z M243.944,225.784
				l24.624,49.248l-35.072,2.528l-21.96-40.976L243.944,225.784z M208,263.848l8.024,14.968L208,279.4V263.848z M264.376,291.376
				L243.664,328H198l-12-16l11.864-15.832L264.376,291.376z"/>
			<path d="M156.288,198.16l66.288,11.048l13.416-80.512l-19.128,19.136L196,120h-64.44l-45.72,73.16l43.176,43.176L156.288,198.16z
				 M188,136l25,33.336l-3.576,21.464l-24.776-4.136l1.776-1.776L151.864,136H188z M106.16,190.84l30.448-48.72l19.92,28.176
				l-29.544,41.36L106.16,190.84z"/>
			<path d="M109.728,222.936l-70.376,11.728l14.912,14.912l-15.336,30.672L75.36,344H160v-64h-33.968L109.728,222.936z
				 M57.072,279.76l16.664-33.328l-1.088-1.096l25.624-4.272l7.936,27.8l-1.24-0.672l-26.544,48.936L57.072,279.76z M144,328H90.72
				l17.36-32H144V328z"/>
			<rect x="448" y="448" width="16" height="16"/>
			<rect x="416" y="448" width="16" height="16"/>
			<rect x="384" y="448" width="16" height="16"/>
			<rect x="448" y="416" width="16" height="16"/>
			<rect x="416" y="416" width="16" height="16"/>
			<rect x="448" y="384" width="16" height="16"/>
		</g>
	</g>
</g>
<g>
</g>
<g>
</g>
<g>
</g>
<g>
</g>
<g>
</g>
<g>
</g>
<g>
</g>
<g>
</g>
<g>
</g>
<g>
</g>
<g>
</g>
<g>
</g>
<g>
</g>
<g>
</g>
<g>
</g>
</svg>
