<svg width="36" height="36" viewBox="0 0 36 36" fill="none" xmlns="http://www.w3.org/2000/svg">
<g clip-path="url(#clip0)">
<path d="M35.7035 4.54335C35.6821 4.52324 31.4535 0.490471 31.4535 0.490471C31.2918 0.335361 31.1246 0.175049 30.8124 0.175049H13.7884C13.2911 0.175049 12.8865 0.579557 12.8865 1.07681V3.84592L6.8864 4.87445C6.40547 4.95883 6.08203 5.4191 6.16535 5.89954L6.46987 7.67507C4.51962 8.33137 2.51733 9.00792 0.584365 9.70225C0.127615 9.86924 -0.11208 10.3771 0.0509045 10.8366L3.89594 21.5252C3.97329 21.7403 4.176 21.8743 4.39221 21.8743C4.45141 21.8743 4.51174 21.8642 4.57066 21.843C4.84474 21.7444 4.98698 21.4423 4.8884 21.1683L1.10025 10.6377C2.92134 9.98568 4.80726 9.34753 6.65037 8.72716L8.46239 19.2913L10.5474 31.4576C10.6227 31.887 11.0002 32.1926 11.4263 32.1926C11.4746 32.1926 11.5235 32.1887 11.5726 32.1806L17.2198 31.2115L21.6326 30.4551L14.9958 32.8405L9.76204 34.7223L5.69742 23.4168C5.59891 23.1428 5.29692 23.0005 5.02277 23.099C4.74869 23.1975 4.60645 23.4996 4.70496 23.7737L8.82724 35.2398C8.95908 35.6004 9.30065 35.8245 9.66171 35.8245C9.76148 35.8245 9.8628 35.8074 9.96152 35.7713L15.3525 33.8331L27.5934 29.4333L29.932 29.0325H35.0979C35.5951 29.0325 35.9997 28.6271 35.9997 28.1287V5.13756C35.9998 4.82193 35.8285 4.66092 35.7035 4.54335ZM34.3063 4.66823H31.6675L31.6021 4.66851C31.4757 4.66935 31.1799 4.67153 31.1049 4.597C31.0876 4.57978 31.0674 4.52226 31.0674 4.41545L31.0612 1.57378L34.3063 4.66823ZM34.9451 27.9777H13.9412V17.7003C13.9412 17.4091 13.7051 17.173 13.4139 17.173C13.1226 17.173 12.8865 17.4091 12.8865 17.7003V28.1286C12.8865 28.6269 13.2911 29.0324 13.7884 29.0324H23.6892L17.0415 30.1718L11.5584 31.1128L9.50189 19.1129L7.23298 5.88506L12.8865 4.91594V15.2534C12.8865 15.5447 13.1226 15.7808 13.4138 15.7808C13.705 15.7808 13.9411 15.5447 13.9411 15.2534V1.22967H30.0058L30.0127 4.41665C30.0127 4.80295 30.1302 5.11542 30.3619 5.34548C30.7178 5.69894 31.2211 5.72355 31.5335 5.72355C31.5603 5.72355 31.5858 5.72334 31.6096 5.7232L34.9451 5.72299V27.9777Z" fill="white"/>
<path d="M16.4834 8.3634C16.4834 8.65464 16.7195 8.89075 17.0107 8.89075H32.0882C32.3795 8.89075 32.6156 8.65464 32.6156 8.3634C32.6156 8.07217 32.3795 7.83606 32.0882 7.83606H17.0107C16.7195 7.83606 16.4834 8.07217 16.4834 8.3634Z" fill="white"/>
<path d="M32.0882 11.5826H17.0107C16.7195 11.5826 16.4834 11.8188 16.4834 12.11C16.4834 12.4012 16.7195 12.6373 17.0107 12.6373H32.0882C32.3795 12.6373 32.6156 12.4012 32.6156 12.11C32.6156 11.8188 32.3795 11.5826 32.0882 11.5826Z" fill="white"/>
<path d="M32.0882 15.3289H17.0107C16.7195 15.3289 16.4834 15.565 16.4834 15.8562C16.4834 16.1474 16.7195 16.3835 17.0107 16.3835H32.0882C32.3795 16.3835 32.6156 16.1474 32.6156 15.8562C32.6156 15.565 32.3795 15.3289 32.0882 15.3289Z" fill="white"/>
<path d="M32.0882 19.0754H17.0107C16.7195 19.0754 16.4834 19.3115 16.4834 19.6028C16.4834 19.894 16.7195 20.1301 17.0107 20.1301H32.0882C32.3795 20.1301 32.6156 19.894 32.6156 19.6028C32.6156 19.3115 32.3795 19.0754 32.0882 19.0754Z" fill="white"/>
<path d="M32.0882 22.8217H17.0107C16.7195 22.8217 16.4834 23.0578 16.4834 23.349C16.4834 23.6402 16.7195 23.8763 17.0107 23.8763H32.0882C32.3795 23.8763 32.6156 23.6402 32.6156 23.349C32.6156 23.0578 32.3795 22.8217 32.0882 22.8217Z" fill="white"/>
</g>
<defs>
<clipPath id="clip0">
<rect width="36" height="36" fill="white"/>
</clipPath>
</defs>
</svg>
