<svg width="24" height="24" viewBox="0 0 24 24" fill="none" xmlns="http://www.w3.org/2000/svg">
<g clip-path="url(#clip0)">
<path d="M23.8022 3.0289C23.788 3.0155 20.9689 0.32698 20.9689 0.32698C20.8611 0.223574 20.7496 0.116699 20.5415 0.116699H9.19214C8.86064 0.116699 8.59092 0.386371 8.59092 0.717871V2.56395L4.59084 3.24964C4.27022 3.30589 4.05459 3.61273 4.11014 3.93303L4.31316 5.11672C3.01299 5.55425 1.67813 6.00528 0.389485 6.46817C0.0849854 6.5795 -0.0748115 6.91807 0.0338448 7.2244L2.5972 14.3502C2.64877 14.4935 2.78391 14.5828 2.92805 14.5828C2.96752 14.5828 3.00774 14.5761 3.04702 14.562C3.22974 14.4963 3.32456 14.2949 3.25884 14.1122L0.733407 7.09179C1.94747 6.65712 3.20475 6.23168 4.43349 5.81811L5.6415 12.8608L7.03153 20.9717C7.08174 21.258 7.33341 21.4617 7.61747 21.4617C7.64963 21.4617 7.68225 21.4591 7.71497 21.4537L11.4798 20.8077L14.4217 20.3034L9.99708 21.8937L6.50794 23.1482L3.79819 15.6112C3.73252 15.4285 3.53119 15.3337 3.34842 15.3994C3.1657 15.465 3.07088 15.6664 3.13655 15.8491L5.88474 23.4932C5.97263 23.7336 6.20034 23.883 6.44105 23.883C6.50756 23.883 6.57511 23.8716 6.64092 23.8475L10.2349 22.5554L18.3955 19.6222L19.9545 19.355H23.3985C23.73 19.355 23.9997 19.0847 23.9997 18.7525V3.42504C23.9998 3.21462 23.8856 3.10728 23.8022 3.0289ZM22.8708 3.11215H21.1116L21.068 3.11234C20.9837 3.1129 20.7865 3.11436 20.7365 3.06467C20.725 3.05318 20.7115 3.01484 20.7115 2.94364L20.7074 1.04918L22.8708 3.11215ZM23.2966 18.6518H9.29405V11.8002C9.29405 11.606 9.13664 11.4486 8.94249 11.4486C8.74833 11.4486 8.59092 11.606 8.59092 11.8002V18.7524C8.59092 19.0846 8.86064 19.3549 9.19214 19.3549H15.7927L11.3609 20.1146L7.7055 20.7419L6.3345 12.742L4.82189 3.92337L8.59088 3.27729V10.1689C8.59088 10.3631 8.74828 10.5205 8.94244 10.5205C9.13659 10.5205 9.294 10.3631 9.294 10.1689V0.819777H20.0038L20.0084 2.94443C20.0084 3.20196 20.0867 3.41028 20.2411 3.56365C20.4785 3.79929 20.814 3.8157 21.0222 3.8157C21.0401 3.8157 21.0571 3.81556 21.073 3.81546L23.2966 3.81532V18.6518Z" fill="#1A133B"/>
<path d="M10.9888 5.57556C10.9888 5.76972 11.1462 5.92712 11.3403 5.92712H21.392C21.5862 5.92712 21.7436 5.76972 21.7436 5.57556C21.7436 5.38141 21.5862 5.224 21.392 5.224H11.3403C11.1462 5.224 10.9888 5.38141 10.9888 5.57556Z" fill="#1A133B"/>
<path d="M21.392 7.7218H11.3403C11.1462 7.7218 10.9888 7.87921 10.9888 8.07336C10.9888 8.26752 11.1462 8.42493 11.3403 8.42493H21.392C21.5862 8.42493 21.7436 8.26752 21.7436 8.07336C21.7436 7.87921 21.5862 7.7218 21.392 7.7218Z" fill="#1A133B"/>
<path d="M21.392 10.2192H11.3403C11.1462 10.2192 10.9888 10.3766 10.9888 10.5708C10.9888 10.765 11.1462 10.9224 11.3403 10.9224H21.392C21.5862 10.9224 21.7436 10.765 21.7436 10.5708C21.7436 10.3766 21.5862 10.2192 21.392 10.2192Z" fill="#1A133B"/>
<path d="M21.392 12.717H11.3403C11.1462 12.717 10.9888 12.8744 10.9888 13.0686C10.9888 13.2628 11.1462 13.4202 11.3403 13.4202H21.392C21.5862 13.4202 21.7436 13.2628 21.7436 13.0686C21.7436 12.8744 21.5862 12.717 21.392 12.717Z" fill="#1A133B"/>
<path d="M21.392 15.2145H11.3403C11.1462 15.2145 10.9888 15.3719 10.9888 15.566C10.9888 15.7602 11.1462 15.9176 11.3403 15.9176H21.392C21.5862 15.9176 21.7436 15.7602 21.7436 15.566C21.7436 15.3719 21.5862 15.2145 21.392 15.2145Z" fill="#1A133B"/>
</g>
<defs>
<clipPath id="clip0">
<rect width="24" height="24" fill="white"/>
</clipPath>
</defs>
</svg>
