<svg width="35" height="35" viewBox="0 0 35 35" fill="none" xmlns="http://www.w3.org/2000/svg">
<g clip-path="url(#clip0)">
<path d="M31.5007 14.537V11.4367C31.5007 10.6929 31.2108 9.99353 30.6846 9.46716L22.0368 0.81833C21.5091 0.290596 20.8074 0 20.0605 0H7.05154C5.09284 0 3.49932 1.59079 3.49932 3.54614V9.71619C3.49932 9.9994 3.72887 10.2289 4.01201 10.2289C4.29516 10.2289 4.52471 9.9994 4.52471 9.71619V3.54614C4.52471 2.15619 5.65824 1.02539 7.05154 1.02539H20.0605C20.2071 1.02539 20.3526 1.04412 20.4935 1.07994V5.65585C20.4935 5.93906 20.7231 6.16854 21.0062 6.16854C21.2894 6.16854 21.5189 5.93906 21.5189 5.65585V1.75062L29.7503 9.983H23.0611C22.2108 9.983 21.5189 9.291 21.5189 8.4404V8.0485C21.5189 7.76528 21.2894 7.5358 21.0062 7.5358C20.7231 7.5358 20.4935 7.76528 20.4935 8.0485V8.4404C20.4935 9.8564 21.6454 11.0084 23.0611 11.0084H30.423C30.4575 11.1468 30.4753 11.2904 30.4753 11.4367V14.0995C30.2377 14.044 29.9906 14.0137 29.7363 14.0137H27.9052C27.622 14.0137 27.3925 14.2432 27.3925 14.5264C27.3925 14.8096 27.622 15.0391 27.9052 15.0391H29.7363C30.9613 15.0391 31.958 16.0357 31.958 17.2607V27.2412C31.958 28.4663 30.9613 29.4629 29.7363 29.4629H17.1184C16.8353 29.4629 16.6057 29.6924 16.6057 29.9756C16.6057 30.2588 16.8353 30.4883 17.1184 30.4883H29.7363C29.9906 30.4883 30.2377 30.458 30.4753 30.4024V31.4539C30.4753 32.8438 29.3418 33.9746 27.9485 33.9746H7.05154C5.65824 33.9746 4.52471 32.8438 4.52471 31.4539V30.4024C4.76226 30.458 5.00944 30.4883 5.26367 30.4883H14.7258C15.009 30.4883 15.2385 30.2588 15.2385 29.9756C15.2385 29.6924 15.009 29.4629 14.7258 29.4629H5.26367C4.03867 29.4629 3.04199 28.4663 3.04199 27.2412V17.2607C3.04199 16.0357 4.03867 15.0391 5.26367 15.0391H25.5126C25.7958 15.0391 26.0253 14.8096 26.0253 14.5264C26.0253 14.2432 25.7958 14.0137 25.5126 14.0137H5.26367C5.00944 14.0137 4.76226 14.044 4.52471 14.0995V12.1088C4.52471 11.8256 4.29516 11.5961 4.01201 11.5961C3.72887 11.5961 3.49932 11.8256 3.49932 12.1088V14.537C2.60784 15.1164 2.0166 16.1206 2.0166 17.2607V27.2412C2.0166 28.3814 2.60784 29.3855 3.49932 29.965V31.4539C3.49932 33.4092 5.09284 35 7.05154 35H27.9485C29.9072 35 31.5007 33.4092 31.5007 31.4539V29.965C32.3922 29.3855 32.9834 28.3814 32.9834 27.2412V17.2607C32.9834 16.1206 32.3922 15.1164 31.5007 14.537Z" fill="#E85C67"/>
<path d="M26.2641 18.896C26.5472 18.896 26.7768 18.6665 26.7768 18.3833C26.7768 18.1001 26.5472 17.8706 26.2641 17.8706H23.1289C22.8458 17.8706 22.6162 18.1001 22.6162 18.3833V26.1187C22.6162 26.4019 22.8458 26.6314 23.1289 26.6314C23.4121 26.6314 23.6416 26.4019 23.6416 26.1187V22.6905H26.015C26.2982 22.6905 26.5277 22.461 26.5277 22.1778C26.5277 21.8946 26.2982 21.6651 26.015 21.6651H23.6416V18.896H26.2641Z" fill="#E85C67"/>
<path d="M15.028 25.9093C15.0146 26.2236 15.2131 26.554 15.5579 26.5448C15.6225 26.5445 17.1467 26.5387 17.754 26.5281C18.7835 26.5101 19.7003 26.0435 20.3355 25.2144C20.9244 24.4458 21.2488 23.3934 21.2488 22.2511C21.2488 19.6829 19.8156 17.9574 17.6824 17.9574H15.5407C15.2622 17.9518 15.0183 18.1997 15.028 18.4779V25.9093ZM17.6824 18.9828C19.5559 18.9828 20.2234 20.671 20.2234 22.2511C20.2234 24.1401 19.2006 25.4772 17.7361 25.5028C17.3545 25.5094 16.5827 25.5143 16.0669 25.517C16.064 24.6714 16.0588 23.0036 16.0588 22.2427C16.0588 21.6068 16.0559 19.8584 16.0543 18.9828H17.6824V18.9828Z" fill="#E85C67"/>
<path d="M8.7364 17.8421C8.46077 17.8366 8.21898 18.0798 8.2237 18.3548V26.1473C8.2237 26.4305 8.45325 26.66 8.7364 26.66C9.01954 26.66 9.24909 26.4305 9.24909 26.1473V23.2723C9.75721 23.2695 10.5259 23.2655 10.9062 23.2655C12.4252 23.2655 13.661 22.049 13.661 20.5538C13.661 19.0586 12.4252 17.8421 10.9062 17.8421H8.7364V17.8421ZM12.6356 20.5539C12.6356 21.4679 11.8437 22.2402 10.9062 22.2402C10.5283 22.2402 9.77061 22.2441 9.26126 22.2469C9.25839 21.7249 9.25449 20.9392 9.25449 20.5539C9.25449 20.2297 9.25224 19.4099 9.25066 18.8675H10.9062C11.8436 18.8675 12.6356 19.6398 12.6356 20.5539Z" fill="#E85C67"/>
</g>
<defs>
<clipPath id="clip0">
<rect width="35" height="35" fill="white"/>
</clipPath>
</defs>
</svg>
