<?xml version="1.0" encoding="UTF-8" standalone="no"?>
<svg
   xmlns:dc="http://purl.org/dc/elements/1.1/"
   xmlns:cc="http://creativecommons.org/ns#"
   xmlns:rdf="http://www.w3.org/1999/02/22-rdf-syntax-ns#"
   xmlns:svg="http://www.w3.org/2000/svg"
   xmlns="http://www.w3.org/2000/svg"
   id="svg8"
   version="1.1"
   viewBox="0 0 11.728583 9.5333959"
   height="36.031731"
   width="44.328499">
  <defs
     id="defs2" />
  <metadata
     id="metadata5">
    <rdf:RDF>
      <cc:Work
         rdf:about="">
        <dc:format>image/svg+xml</dc:format>
        <dc:type
           rdf:resource="http://purl.org/dc/dcmitype/StillImage" />
        <dc:title></dc:title>
      </cc:Work>
    </rdf:RDF>
  </metadata>
  <g
     transform="translate(0.02503019,-286.07268)"
     id="layer1">
    <g
       transform="matrix(0.26458333,0,0,0.26458333,-393.24691,15.631909)"
       id="g4767"
       style="fill:none;stroke:currentColor;stroke-width:2;stroke-linecap:round;stroke-linejoin:round">
      <g
         style="stroke:#a8a8a8;stroke-opacity:1"
         transform="matrix(1.06084,0,0,1.0510768,-90.428941,-54.056772)"
         id="g4773">
        <polyline
           style="stroke:#a8a8a8;stroke-opacity:1"
           id="polyline4747"
           points="16 16 12 12 8 16"
           transform="matrix(1.743409,0,0,1.7115247,1486.1667,1020.4844)" />
        <line
           id="line4749"
           y2="1056.4265"
           x2="1507.0876"
           y1="1041.0228"
           x1="1507.0876"
           style="stroke-width:3.45478654;stroke:#a8a8a8;stroke-opacity:1" />
        <path
           id="path4751"
           d="m 1521.7148,1051.9593 a 8.7170449,8.5576233 0 0 0 -4.1668,-16.0712 h -2.1967 a 13.947272,13.692197 0 1 0 -23.9544,12.4942"
           style="stroke-width:3.45478654;stroke:#a8a8a8;stroke-opacity:1" />
        <polyline
           style="stroke:#a8a8a8;stroke-opacity:1"
           id="polyline4753"
           points="16 16 12 12 8 16"
           transform="matrix(1.743409,0,0,1.7115247,1486.1667,1020.4844)" />
      </g>
    </g>
  </g>
</svg>
