<?xml version="1.0" encoding="UTF-8" standalone="no"?>
<!-- Created with Inkscape (http://www.inkscape.org/) -->

<svg
   xmlns:dc="http://purl.org/dc/elements/1.1/"
   xmlns:cc="http://creativecommons.org/ns#"
   xmlns:rdf="http://www.w3.org/1999/02/22-rdf-syntax-ns#"
   xmlns:svg="http://www.w3.org/2000/svg"
   xmlns="http://www.w3.org/2000/svg"
   xmlns:sodipodi="http://sodipodi.sourceforge.net/DTD/sodipodi-0.dtd"
   xmlns:inkscape="http://www.inkscape.org/namespaces/inkscape"
   width="200"
   height="200"
   viewBox="0 0 52.916665 52.916668"
   version="1.1"
   id="svg8"
   inkscape:version="0.92.4 (5da689c313, 2019-01-14)">
  <defs
     id="defs2" />
  <sodipodi:namedview
     id="base"
     pagecolor="#ffffff"
     bordercolor="#666666"
     borderopacity="1.0"
     inkscape:pageopacity="0.0"
     inkscape:pageshadow="2"
     inkscape:zoom="2.8"
     inkscape:cx="188.84855"
     inkscape:cy="86.306585"
     inkscape:document-units="mm"
     inkscape:current-layer="layer1"
     showgrid="false"
     units="px"
     inkscape:window-width="1920"
     inkscape:window-height="1001"
     inkscape:window-x="-9"
     inkscape:window-y="-9"
     inkscape:window-maximized="1" />
  <metadata
     id="metadata5">
    <rdf:RDF>
      <cc:Work
         rdf:about="">
        <dc:format>image/svg+xml</dc:format>
        <dc:type
           rdf:resource="http://purl.org/dc/dcmitype/StillImage" />
        <dc:title></dc:title>
      </cc:Work>
    </rdf:RDF>
  </metadata>
  <g
     inkscape:label="Layer 1"
     inkscape:groupmode="layer"
     id="layer1"
     transform="translate(0,-244.08332)">
    <g
       id="g4802"
       transform="matrix(0.10193167,0,0,0.10193167,6.9023842,244.44704)"
       style="fill:#ffffff">
      <path
         id="path4770"
         d="m 39.550781,162.55078 c 2.566407,0 5.136719,-0.98047 7.097657,-2.94141 3.921874,-3.92187 3.921874,-10.27734 0,-14.19921 -17.128907,-17.13282 -26.566407,-39.90625 -26.566407,-64.136722 0,-24.226563 9.4375,-47 26.566407,-64.132813 3.921874,-3.921875 3.921874,-10.277344 0,-14.199219 -3.921876,-3.921875 -10.28125,-3.921875 -14.199219,0 C 11.523438,23.867188 0,51.683594 0,81.277344 0,110.86719 11.523438,138.6875 32.449219,159.61328 c 1.960937,1.95703 4.527343,2.9375 7.101562,2.9375 z m 0,0"
         inkscape:connector-curvature="0"
         style="fill:#ffffff" />
      <path
         id="path4772"
         d="m 83.644531,143.20312 c 2.570313,0 5.140625,-0.98046 7.101563,-2.9414 3.921875,-3.92188 3.921875,-10.28125 0,-14.20313 C 78.785156,114.09766 72.195312,98.191406 72.195312,81.277344 c 0,-16.917969 6.589844,-32.824219 18.550782,-44.785156 3.921875,-3.921876 3.921875,-10.28125 0,-14.203126 -3.921875,-3.917968 -10.28125,-3.917968 -14.203125,0 -32.523438,32.527344 -32.523438,85.445318 0,117.968748 1.960937,1.96485 4.53125,2.94531 7.101562,2.94531 z m 0,0"
         inkscape:connector-curvature="0"
         style="fill:#ffffff" />
      <path
         id="path4774"
         d="m 127.74219,123.85156 c 2.57031,0 5.14062,-0.98047 7.10156,-2.9414 3.91797,-3.92188 3.91797,-10.28125 0,-14.20313 -14.02734,-14.023436 -14.02734,-36.839842 0,-50.867186 3.91797,-3.917969 3.91797,-10.277344 0,-14.199219 -3.92188,-3.921875 -10.28125,-3.921875 -14.20312,0 -21.855474,21.855469 -21.855474,57.414063 0,79.269535 1.96093,1.96093 4.53125,2.9414 7.10156,2.9414 z m 0,0"
         inkscape:connector-curvature="0"
         style="fill:#ffffff" />
      <path
         id="path4776"
         d="m 205.72656,119.95703 c 15.85547,-5.70312 27.22266,-20.886718 27.22266,-38.679686 0,-22.660156 -18.4336,-41.097656 -41.09375,-41.097656 -22.66406,0 -41.09766,18.4375 -41.09766,41.097656 0,17.792968 11.36719,32.976566 27.22266,38.679686 L 26.386719,498.22266 c -2.0625,5.14453 0.4375,10.99218 5.585937,13.05468 5.144532,2.06641 10.992188,-0.4375 13.054688,-5.58593 L 70.980469,440.93359 H 177.28906 c 5.54688,0 10.04297,-4.49609 10.04297,-10.04297 0,-5.54296 -4.49609,-10.03906 -10.04297,-10.03906 h -69.19922 l 162.90625,-84.04687 33.6836,84.04687 h -46.82422 c -5.54688,0 -10.03906,4.4961 -10.03906,10.03906 0,5.54688 4.49218,10.04297 10.03906,10.04297 h 54.87109 l 25.95313,64.75782 C 340.25,509.61328 344.01953,512 348.00391,512 c 1.24218,0 2.50781,-0.23047 3.73046,-0.72266 5.14844,-2.0664 7.64844,-7.91015 5.58594,-13.05859 z m -48.01562,104.56641 c 0.71484,0.16406 1.46093,0.25781 2.22656,0.25781 h 38.32812 L 133.37109,285.25 Z m 7.94531,-19.82813 26.19922,-65.37109 26.19922,65.37109 z m 5.18359,-123.417966 c 0,-11.585938 9.42969,-21.015625 21.01563,-21.015625 11.58594,0 21.01172,9.429687 21.01172,21.015625 0,11.585937 -9.42578,21.011716 -21.01172,21.011716 -11.58594,0 -21.01563,-9.425779 -21.01563,-21.011716 z M 82.871094,411.26562 114.29297,332.85547 h 120.55078 z m 50.421876,-98.49218 93.25,-86.89063 34.82422,86.89063 z m 0,0"
         inkscape:connector-curvature="0"
         style="fill:#ffffff" />
      <path
         id="path4778"
         d="m 337.05859,159.61328 c 1.96094,1.95703 4.53125,2.94141 7.10157,2.94141 2.57031,0 5.14062,-0.98438 7.10156,-2.94141 20.92187,-20.92578 32.44531,-48.74609 32.44531,-78.335936 0,-29.59375 -11.52344,-57.410156 -32.44531,-78.335938 -3.92188,-3.921875 -10.28125,-3.921875 -14.20313,0 -3.92187,3.921875 -3.92187,10.277344 0,14.203125 17.13282,17.128907 26.56641,39.90625 26.56641,64.132813 0,24.226566 -9.43359,47.003906 -26.56641,64.132816 -3.92187,3.92187 -3.92187,10.27734 0,14.20312 z m 0,0"
         inkscape:connector-curvature="0"
         style="fill:#ffffff" />
      <path
         id="path4780"
         d="m 292.96484,140.26172 c 1.96094,1.96094 4.53125,2.9414 7.09766,2.9414 2.57031,0 5.14062,-0.98046 7.10156,-2.9414 32.52344,-32.52734 32.52344,-85.445314 0,-117.968751 -3.92187,-3.921875 -10.28125,-3.921875 -14.20312,0 -3.91797,3.921875 -3.91797,10.277343 0,14.199219 11.96484,11.964843 18.55078,27.867187 18.55078,44.785156 0,16.917968 -6.58594,32.820316 -18.55078,44.785156 -3.91797,3.91797 -3.91797,10.27734 0.004,14.19922 z m 0,0"
         inkscape:connector-curvature="0"
         style="fill:#ffffff" />
      <path
         id="path4782"
         d="m 248.86719,120.91016 c 1.96093,1.96093 4.53125,2.9414 7.09765,2.9414 2.57032,0 5.14063,-0.98047 7.10157,-2.9414 21.85546,-21.855472 21.85546,-57.414066 0,-79.269535 -3.92188,-3.917969 -10.27735,-3.917969 -14.20313,0 -3.91797,3.921875 -3.91797,10.28125 0,14.203125 14.02734,14.023438 14.02734,36.84375 0,50.86719 -3.91797,3.91797 -3.91797,10.27734 0.004,14.19922 z m 0,0"
         inkscape:connector-curvature="0"
         style="fill:#ffffff" />
      <path
         id="path4784"
         d="m 226.85937,427.04687 c -1.63281,-3.95312 -5.72265,-6.47656 -9.99218,-6.16796 -4.16016,0.29687 -7.78125,3.25 -8.92969,7.2539 -1.15625,4.02344 0.39062,8.49219 3.80859,10.91797 3.38282,2.40625 7.95313,2.47266 11.41797,0.18359 3.96094,-2.61328 5.4961,-7.82812 3.69531,-12.1875 z m 0,0"
         inkscape:connector-curvature="0"
         style="fill:#ffffff" />
    </g>
  </g>
</svg>
