<?xml version="1.0" encoding="UTF-8" standalone="no"?>
<!-- Created with Inkscape (http://www.inkscape.org/) -->

<svg
   xmlns:dc="http://purl.org/dc/elements/1.1/"
   xmlns:cc="http://creativecommons.org/ns#"
   xmlns:rdf="http://www.w3.org/1999/02/22-rdf-syntax-ns#"
   xmlns:svg="http://www.w3.org/2000/svg"
   xmlns="http://www.w3.org/2000/svg"
   xmlns:sodipodi="http://sodipodi.sourceforge.net/DTD/sodipodi-0.dtd"
   xmlns:inkscape="http://www.inkscape.org/namespaces/inkscape"
   width="200"
   height="200"
   viewBox="0 0 52.916665 52.916668"
   version="1.1"
   id="svg8"
   inkscape:version="0.92.4 (5da689c313, 2019-01-14)">
  <defs
     id="defs2" />
  <sodipodi:namedview
     id="base"
     pagecolor="#ffffff"
     bordercolor="#666666"
     borderopacity="1.0"
     inkscape:pageopacity="0.0"
     inkscape:pageshadow="2"
     inkscape:zoom="0.98994949"
     inkscape:cx="200.38492"
     inkscape:cy="-29.827454"
     inkscape:document-units="mm"
     inkscape:current-layer="layer1"
     showgrid="false"
     units="px"
     inkscape:window-width="1920"
     inkscape:window-height="1001"
     inkscape:window-x="-9"
     inkscape:window-y="-9"
     inkscape:window-maximized="1" />
  <metadata
     id="metadata5">
    <rdf:RDF>
      <cc:Work
         rdf:about="">
        <dc:format>image/svg+xml</dc:format>
        <dc:type
           rdf:resource="http://purl.org/dc/dcmitype/StillImage" />
        <dc:title></dc:title>
      </cc:Work>
    </rdf:RDF>
  </metadata>
  <g
     inkscape:label="Layer 1"
     inkscape:groupmode="layer"
     id="layer1"
     transform="translate(0,-244.08332)">
    <g
       id="g4973"
       transform="matrix(0.09492809,0,0,0.09492809,2.1566058,246.24001)"
       style="fill:#ffffff">
      <g
         id="g4808"
         style="fill:#ffffff">
	<g
   id="g4806"
   style="fill:#ffffff">
		<path
   id="path4804"
   d="M 414.935,49.266 391.033,25.364 c -3.337,-3.337 -8.73,-3.337 -12.066,0 l -47.805,47.805 c -1.604,1.596 -2.5,3.772 -2.5,6.033 0,2.261 0.896,4.429 2.5,6.033 l 23.902,23.902 c 1.664,1.664 3.849,2.5 6.033,2.5 2.184,0 4.369,-0.836 6.033,-2.5 l 47.805,-47.805 c 1.604,-1.596 2.5,-3.772 2.5,-6.033 0,-2.261 -0.896,-4.429 -2.5,-6.033 z M 361.097,91.037 349.261,79.201 385,43.463 396.836,55.299 Z"
   inkscape:connector-curvature="0"
   style="fill:#ffffff" />

	</g>

</g>
      <g
         id="g4814"
         style="fill:#ffffff">
	<g
   id="g4812"
   style="fill:#ffffff">
		<path
   id="path4810"
   d="M 438.837,73.168 414.935,49.266 c -1.596,-1.604 -3.772,-2.5 -6.033,-2.5 -2.261,0 -4.429,0.896 -6.033,2.5 L 355.064,97.07 c -3.337,3.337 -3.337,8.73 0,12.066 l 23.902,23.902 c 1.596,1.604 3.772,2.5 6.033,2.5 2.261,0 4.429,-0.905 6.033,-2.5 l 47.805,-47.805 c 3.337,-3.335 3.337,-8.728 0,-12.065 z M 385,114.94 373.164,103.104 408.902,67.366 420.738,79.202 Z"
   inkscape:connector-curvature="0"
   style="fill:#ffffff" />

	</g>

</g>
      <g
         id="g4820"
         style="fill:#ffffff">
	<g
   id="g4818"
   style="fill:#ffffff">
		<path
   id="path4816"
   d="M 462.74,97.07 438.838,73.168 c -3.337,-3.337 -8.73,-3.337 -12.066,0 l -47.805,47.805 c -1.604,1.596 -2.5,3.772 -2.5,6.033 0,2.261 0.896,4.429 2.5,6.033 l 23.902,23.902 c 1.664,1.664 3.849,2.5 6.033,2.5 2.184,0 4.369,-0.836 6.033,-2.5 l 47.805,-47.805 c 1.604,-1.596 2.5,-3.772 2.5,-6.033 0,-2.261 -0.896,-4.428 -2.5,-6.033 z m -53.838,41.772 -11.836,-11.836 35.738,-35.738 11.836,11.836 z"
   inkscape:connector-curvature="0"
   style="fill:#ffffff" />

	</g>

</g>
      <g
         id="g4826"
         style="fill:#ffffff">
	<g
   id="g4824"
   style="fill:#ffffff">
		<path
   id="path4822"
   d="M 486.642,120.973 462.74,97.07 c -1.596,-1.604 -3.772,-2.5 -6.033,-2.5 -2.261,0 -4.429,0.896 -6.033,2.5 l -47.805,47.805 c -3.337,3.337 -3.337,8.73 0,12.066 l 23.902,23.902 c 1.596,1.604 3.772,2.5 6.033,2.5 2.261,0 4.429,-0.896 6.033,-2.5 l 47.805,-47.805 c 3.336,-3.336 3.336,-8.729 0,-12.065 z m -53.838,41.771 -11.836,-11.836 35.738,-35.738 11.836,11.836 z"
   inkscape:connector-curvature="0"
   style="fill:#ffffff" />

	</g>

</g>
      <g
         id="g4832"
         style="fill:#ffffff">
	<g
   id="g4830"
   style="fill:#ffffff">
		<path
   id="path4828"
   d="m 373.104,174.742 -35.858,-35.858 c -3.2,-3.2 -8.866,-3.2 -12.066,0 l -77.68,77.689 c -6.4,6.4 -9.924,14.908 -9.924,23.962 0,9.054 3.524,17.562 9.924,23.962 6.613,6.605 15.283,9.907 23.962,9.907 8.679,0 17.357,-3.302 23.953,-9.916 l 77.689,-77.68 c 1.604,-1.596 2.5,-3.772 2.5,-6.033 0,-2.261 -0.896,-4.429 -2.5,-6.033 z m -89.755,77.697 c -6.554,6.562 -17.221,6.562 -23.783,0 -3.174,-3.183 -4.924,-7.399 -4.924,-11.896 0,-4.497 1.749,-8.713 4.924,-11.896 L 331.213,157 l 23.783,23.791 z"
   inkscape:connector-curvature="0"
   style="fill:#ffffff" />

	</g>

</g>
      <g
         id="g4838"
         style="fill:#ffffff">
	<g
   id="g4836"
   style="fill:#ffffff">
		<path
   id="path4834"
   d="M 259.574,336.093 128.108,204.626 c -3.328,-3.337 -8.738,-3.337 -12.066,0 -3.337,3.337 -3.337,8.73 0,12.066 L 247.5,348.159 c 1.664,1.664 3.849,2.5 6.033,2.5 2.184,0 4.369,-0.836 6.042,-2.5 3.336,-3.336 3.336,-8.729 -10e-4,-12.066 z"
   inkscape:connector-curvature="0"
   style="fill:#ffffff" />

	</g>

</g>
      <g
         id="g4844"
         style="fill:#ffffff">
	<g
   id="g4842"
   style="fill:#ffffff">
		<path
   id="path4840"
   d="m 307.37,383.898 -23.902,-23.902 c -3.337,-3.337 -8.73,-3.337 -12.066,0 -3.337,3.337 -3.337,8.73 0,12.066 l 23.902,23.902 c 1.664,1.664 3.849,2.5 6.033,2.5 2.184,0 4.369,-0.836 6.033,-2.5 3.337,-3.337 3.337,-8.73 0,-12.066 z"
   inkscape:connector-curvature="0"
   style="fill:#ffffff" />

	</g>

</g>
      <g
         id="g4850"
         style="fill:#ffffff">
	<g
   id="g4848"
   style="fill:#ffffff">
		<path
   id="path4846"
   d="m 157.983,401.818 -47.805,-47.805 c -3.328,-3.337 -8.738,-3.337 -12.066,0 l -26.829,26.829 c -4.019,4.028 -6.238,9.37 -6.238,15.062 0,5.692 2.21,11.034 6.238,15.062 l 29.756,29.756 c 4.147,4.156 9.6,6.229 15.053,6.229 5.453,-0.009 10.914,-2.082 15.062,-6.238 l 26.829,-26.829 c 1.604,-1.596 2.5,-3.772 2.5,-6.033 0.001,-2.261 -0.895,-4.429 -2.5,-6.033 z m -38.887,26.846 c -1.655,1.647 -4.335,1.647 -5.982,0 L 83.358,398.908 c -1.084,-1.084 -1.246,-2.338 -1.246,-2.995 0,-0.657 0.162,-1.92 1.237,-2.995 l 20.796,-20.796 35.747,35.747 z"
   inkscape:connector-curvature="0"
   style="fill:#ffffff" />

	</g>

</g>
      <g
         id="g4856"
         style="fill:#ffffff">
	<g
   id="g4854"
   style="fill:#ffffff">
		<path
   id="path4852"
   d="M 110.179,425.729 86.277,401.827 c -3.2,-3.2 -8.866,-3.2 -12.066,0 L 2.504,473.533 c -1.604,1.596 -2.5,3.772 -2.5,6.033 0,2.261 0.896,4.429 2.5,6.033 l 23.902,23.902 c 1.664,1.664 3.849,2.5 6.033,2.5 2.184,0 4.369,-0.836 6.033,-2.5 l 71.707,-71.707 c 3.336,-3.336 3.336,-8.729 0,-12.065 z m -77.74,65.673 -11.836,-11.836 59.64,-59.64 11.836,11.836 z"
   inkscape:connector-curvature="0"
   style="fill:#ffffff" />

	</g>

</g>
      <g
         id="g4862"
         style="fill:#ffffff">
	<g
   id="g4860"
   style="fill:#ffffff">
		<path
   id="path4858"
   d="M 504.562,138.884 373.121,7.443 c -9.924,-9.924 -26.078,-9.924 -35.994,0 L 229.579,114.999 c -1.604,1.596 -2.5,3.772 -2.5,6.033 0,2.261 0.896,4.429 2.5,6.033 l 59.76,59.751 c 3.2,3.2 8.866,3.2 12.066,0 l 29.816,-29.824 23.791,23.791 -29.824,29.817 c -1.604,1.596 -2.5,3.772 -2.5,6.033 0,2.261 0.896,4.429 2.5,6.033 l 59.751,59.76 c 1.596,1.604 3.772,2.5 6.033,2.5 2.261,0 4.429,-0.896 6.033,-2.5 L 504.561,174.879 c 9.917,-9.925 9.917,-26.07 0.001,-35.995 z m -12.075,23.928 -101.514,101.515 -47.685,-47.694 29.816,-29.816 c 1.604,-1.596 2.5,-3.772 2.5,-6.033 0,-2.261 -0.896,-4.429 -2.5,-6.033 l -35.858,-35.858 c -3.2,-3.2 -8.866,-3.2 -12.066,0 L 295.364,168.717 247.679,121.032 349.193,19.51 c 3.268,-3.26 8.593,-3.26 11.862,0 l 131.433,131.441 c 3.267,3.277 3.267,8.593 -10e-4,11.861 z"
   inkscape:connector-curvature="0"
   style="fill:#ffffff" />

	</g>

</g>
      <g
         id="g4868"
         style="fill:#ffffff">
	<g
   id="g4866"
   style="fill:#ffffff">
		<path
   id="path4864"
   d="m 408.953,282.315 -71.707,-71.707 c -3.337,-3.337 -8.73,-3.337 -12.066,0 l -41.831,41.831 c -6.349,6.349 -17.425,6.349 -23.783,0 -3.174,-3.183 -4.924,-7.399 -4.924,-11.896 0,-4.497 1.749,-8.713 4.924,-11.896 l 41.831,-41.831 c 3.337,-3.337 3.337,-8.73 0,-12.066 L 229.69,103.043 c -3.328,-3.337 -8.738,-3.337 -12.066,0 L 116.041,204.626 c -0.939,0.939 -1.647,2.082 -2.065,3.337 L 72.145,333.456 c -1.015,3.063 -0.222,6.443 2.065,8.73 l 95.609,95.609 c 1.621,1.63 3.806,2.5 6.033,2.5 0.905,0 1.818,-0.145 2.697,-0.435 l 125.493,-41.831 c 1.254,-0.427 2.398,-1.126 3.337,-2.065 L 408.953,294.381 c 3.337,-3.336 3.337,-8.729 0,-12.066 z M 296.729,382.473 178.157,422 90.006,333.849 l 39.527,-118.59 94.124,-94.124 59.64,59.64 -35.797,35.798 c -6.4,6.4 -9.924,14.908 -9.924,23.962 0,9.054 3.524,17.562 9.924,23.962 12.8,12.8 35.115,12.809 47.915,0 l 35.798,-35.798 59.64,59.649 z"
   inkscape:connector-curvature="0"
   style="fill:#ffffff" />

	</g>

</g>
      <g
         id="g4874"
         style="fill:#ffffff">
	<g
   id="g4872"
   style="fill:#ffffff">
		<path
   id="path4870"
   d="m 235.664,371.951 -95.609,-95.609 c -3.328,-3.337 -8.738,-3.337 -12.066,0 -3.337,3.337 -3.337,8.73 0,12.066 l 95.609,95.609 c 1.664,1.664 3.849,2.5 6.033,2.5 2.185,0 4.369,-0.836 6.033,-2.5 3.336,-3.337 3.336,-8.73 0,-12.066 z"
   inkscape:connector-curvature="0"
   style="fill:#ffffff" />

	</g>

</g>
      <g
         id="g4880"
         style="fill:#ffffff">
	<g
   id="g4878"
   style="fill:#ffffff">
		<path
   id="path4876"
   d="m 187.859,371.951 -47.805,-47.805 c -3.328,-3.337 -8.738,-3.337 -12.066,0 -3.337,3.337 -3.337,8.73 0,12.066 l 47.805,47.805 c 1.664,1.664 3.849,2.5 6.033,2.5 2.184,0 4.369,-0.836 6.033,-2.5 3.337,-3.337 3.337,-8.73 0,-12.066 z"
   inkscape:connector-curvature="0"
   style="fill:#ffffff" />

	</g>

</g>
      <g
         id="g4882"
         style="fill:#ffffff">
</g>
      <g
         id="g4884"
         style="fill:#ffffff">
</g>
      <g
         id="g4886"
         style="fill:#ffffff">
</g>
      <g
         id="g4888"
         style="fill:#ffffff">
</g>
      <g
         id="g4890"
         style="fill:#ffffff">
</g>
      <g
         id="g4892"
         style="fill:#ffffff">
</g>
      <g
         id="g4894"
         style="fill:#ffffff">
</g>
      <g
         id="g4896"
         style="fill:#ffffff">
</g>
      <g
         id="g4898"
         style="fill:#ffffff">
</g>
      <g
         id="g4900"
         style="fill:#ffffff">
</g>
      <g
         id="g4902"
         style="fill:#ffffff">
</g>
      <g
         id="g4904"
         style="fill:#ffffff">
</g>
      <g
         id="g4906"
         style="fill:#ffffff">
</g>
      <g
         id="g4908"
         style="fill:#ffffff">
</g>
      <g
         id="g4910"
         style="fill:#ffffff">
</g>
    </g>
  </g>
</svg>
